{"title":"Snitch.2013.BDRip.XviD-PTpOWeR","uid":8495365,"size":746414539,"categoryP":"video","categoryS":"movies","magnet":"?xt=urn:btih:87c6695e43c082b55456a425de0ccfa07cb7a322&amp;dn=Snitch.2013.BDRip.XviD-PTpOWeR&amp;tr=udp%3A%2F%2Ftracker.openbittorrent.com%3A80&amp;tr=udp%3A%2F%2Fopen.demonii.com%3A1337&amp;tr=udp%3A%2F%2Ftracker.coppersurfer.tk%3A6969&amp;tr=udp%3A%2F%2Fexodus.desync.com%3A6969","seeders":1,"leechers":0,"uploader":"xxxlavalxxx","files":-1,"time":1369128147,"description":"   &lt;a href=&quot;\nhttp://www.imdb.com/title/tt0882977/&quot; rel=&quot;nofollow&quot; target=&quot;_NEW&quot;&gt;\nhttp://www.imdb.com/title/tt0882977/&lt;/a&gt;\n\n\n\nPlot: A father goes undercover for the DEA in order to free his son who was imprisoned after being set up in drug deal. \n\n\n\nDirector:\n Ric Roman Waugh\n\nWriters:\n Justin Haythe, Ric Roman Waugh\n\nStars:\n Dwayne Johnson, Susan Sarandon, Jon Bernthal\n\nGenres:\n Action | Drama | Thriller \n\nCountry:\nUSA \n\n\n\nFormat                                   : AVI\nFormat/Info                              : Audio Video Interleave\nFile size                                : 712 MiB\nDuration                                 : 1h 51mn\nOverall bit rate                         : 890 Kbps\nWriting application                      : VirtualDubMod 1.5.10.2 (build 2540/release)\nWriting library                          : VirtualDubMod build 2540/release\n\nVideo\nID                                       : 0\nFormat                                   : MPEG-4 Visual\nFormat profile                           : Advanced Simple@L5\nFormat settings, BVOP                    : 2\nFormat settings, QPel                    : No\nFormat settings, GMC                     : No warppoints\nFormat settings, Matrix                  : Default (H.263)\nMuxing mode                              : Packed bitstream\nCodec ID                                 : XVID\nCodec ID/Hint                            : XviD\nDuration                                 : 1h 51mn\nBit rate                                 : 752 Kbps\nWidth                                    : 640 pixels\nHeight                                   : 272 pixels\nDisplay aspect ratio                     : 2.40:1\nOriginal display aspect ratio            : 2.35:1\nFrame rate                               : 23.976 fps\nColor space                              : YUV\nChroma subsampling                       : 4:2:0\nBit depth                                : 8 bits\nScan type                                : Progressive\nCompression mode                         : Lossy\nBits/(Pixel*Frame)                       : 0.180\nStream size                              : 602 MiB (85%)\nWriting library                          : XviD 64\n\nAudio\nID                                       : 1\nFormat                                   : MPEG Audio\nFormat version                           : Version 1\nFormat profile                           : Layer 3\nMode                                     : Joint stereo\nMode extension                           : MS Stereo\nCodec ID                                 : 55\nCodec ID/Hint                            : MP3\nDuration                                 : 1h 51mn\nBit rate mode                            : Constant\nBit rate                                 : 128 Kbps\nChannel(s)                               : 2 channels\nSampling rate                            : 48.0 KHz\nCompression mode                         : Lossy\nStream size                              : 102 MiB (14%)\nAlignment                                : Aligned on interleaves\nInterleave, duration                     : 42 ms (1.00 video frame)\nInterleave, preload duration             : 504 ms\nWriting library                          : LAME3.99r\nEncoding settings                        : -m j -V 4 -q 2 -lowpass 17 -b 128\n\n\n\n\n\n    &lt;a href=&quot;\thttp://addpix.net/viewer.php?file=87758832823093971998.jpg&quot; rel=&quot;nofollow&quot; target=&quot;_NEW&quot;&gt;\thttp://addpix.net/viewer.php?file=87758832823093971998.jpg&lt;/a&gt;\n    &lt;a href=&quot;\thttp://addpix.net/viewer.php?file=73628043667284446354.jpg&quot; rel=&quot;nofollow&quot; target=&quot;_NEW&quot;&gt;\thttp://addpix.net/viewer.php?file=73628043667284446354.jpg&lt;/a&gt;\n    &lt;a href=&quot;\thttp://addpix.net/viewer.php?file=22702064225747402357.jpg&quot; rel=&quot;nofollow&quot; target=&quot;_NEW&quot;&gt;\thttp://addpix.net/viewer.php?file=22702064225747402357.jpg&lt;/a&gt;\n    &lt;a href=&quot;\thttp://addpix.net/viewer.php?file=19297852501351396420.jpg&quot; rel=&quot;nofollow&quot; target=&quot;_NEW&quot;&gt;\thttp://addpix.net/viewer.php?file=19297852501351396420.jpg&lt;/a&gt;\n    &lt;a href=&quot;\thttp://addpix.net/viewer.php?file=10516812997907449383.jpg&quot; rel=&quot;nofollow&quot; target=&quot;_NEW&quot;&gt;\thttp://addpix.net/viewer.php?file=10516812997907449383.jpg&lt;/a&gt;\n    &lt;a href=&quot;\thttp://addpix.net/viewer.php?file=64147260170861157494.jpg&quot; rel=&quot;nofollow&quot; target=&quot;_NEW&quot;&gt;\thttp://addpix.net/viewer.php?file=64147260170861157494.jpg&lt;/a&gt;\n\n","torrent":{"xt":"urn:btih:87c6695e43c082b55456a425de0ccfa07cb7a322","amp;dn":"Snitch.2013.BDRip.XviD-PTpOWeR","amp;tr":["udp%3A%2F%2Ftracker.openbittorrent.com%3A80","udp%3A%2F%2Fopen.demonii.com%3A1337","udp%3A%2F%2Ftracker.coppersurfer.tk%3A6969","udp%3A%2F%2Fexodus.desync.com%3A6969"],"infoHash":"87c6695e43c082b55456a425de0ccfa07cb7a322","infoHashBuffer":{"type":"Buffer","data":[135,198,105,94,67,192,130,181,84,86,164,37,222,12,207,160,124,183,163,34]},"announce":[],"urlList":[]}}